<svg width="35" height="31" viewBox="0 0 35 31" fill="none" xmlns="http://www.w3.org/2000/svg">
<path d="M26.3365 6.16078L11.9421 15.0263C11.1275 15.5292 10.7421 16.5223 11.0045 17.441L12.5609 22.9097C12.6939 23.376 13.1088 23.6859 13.5862 23.6859C13.6128 23.6859 13.6397 23.685 13.6666 23.683C14.177 23.6459 14.5808 23.2658 14.6487 22.7591L15.0534 19.7605C15.108 19.357 15.3024 18.9817 15.6004 18.7043L27.4788 7.66263C27.8378 7.32979 27.8852 6.78476 27.5894 6.39491C27.2932 6.00471 26.7548 5.90381 26.3365 6.16078ZM14.6506 17.6834C14.1168 18.1802 13.7691 18.8516 13.6715 19.5738L13.4752 21.0284L12.3454 17.0586C12.2536 16.7371 12.3888 16.3893 12.6739 16.2134L23.2189 9.71874L14.6506 17.6834Z" fill="white"/>
<path d="M34.4306 0.381942C33.9809 0.000770283 33.3603 -0.104161 32.8106 0.108163L1.03088 12.3679C0.401494 12.6106 -0.0031939 13.2032 1.89913e-05 13.8776C0.00330024 14.5526 0.413935 15.1419 1.04701 15.3791L8.47016 18.1496L11.3658 27.4619C11.5248 27.9738 11.9261 28.3716 12.4392 28.526C12.9521 28.6802 13.5059 28.5699 13.9199 28.2313L18.2361 24.7127C18.4434 24.5437 18.7394 24.5354 18.9558 24.6925L26.7408 30.3445C27.0208 30.5481 27.3514 30.6529 27.6857 30.6529C27.8816 30.6529 28.0787 30.617 28.2679 30.5438C28.7797 30.3459 29.1518 29.9072 29.2632 29.3706L34.9664 1.93732C35.0862 1.35969 34.8809 0.763729 34.4306 0.381942ZM33.6011 1.65397L27.898 29.0871C27.8774 29.1863 27.806 29.2275 27.7653 29.2433C27.7243 29.2591 27.6433 29.2767 27.5604 29.2164L19.7752 23.5641C19.4271 23.3115 19.0179 23.186 18.6095 23.186C18.1639 23.186 17.719 23.3354 17.3553 23.6316L13.0381 27.1511C12.9613 27.214 12.8815 27.2028 12.8409 27.1906C12.8 27.1783 12.7271 27.1434 12.6974 27.048L9.70021 17.4089C9.63616 17.2029 9.4803 17.0382 9.27823 16.9627L1.53551 14.073C1.41957 14.0295 1.39489 13.9391 1.39455 13.8708C1.39421 13.8031 1.418 13.7131 1.53284 13.6688L33.3126 1.40918C33.3128 1.40911 33.313 1.40904 33.3132 1.40897C33.4164 1.36912 33.4928 1.41492 33.5291 1.44568C33.5656 1.47679 33.6237 1.54515 33.6011 1.65397Z" fill="white"/>
</svg>
