<svg width="35" height="35" viewBox="0 0 35 35" fill="none" xmlns="http://www.w3.org/2000/svg">
<g clip-path="url(#clip0_193_975)">
<path d="M22.9686 21.6562C22.3852 21.0728 21.6561 20.7812 20.9269 20.7812C20.1977 20.7812 19.3957 21.0728 18.8852 21.6562L16.6248 23.9166C15.3852 24.4999 10.5727 19.6874 11.1561 18.4478L13.4165 16.1874C14.5832 15.0208 14.5832 13.1978 13.4165 12.0312L6.9269 5.6145C5.76024 4.44784 3.93732 4.44784 2.77066 5.6145L1.09357 7.29159C-3.86476 12.2499 8.96857 28.6562 19.7602 33.6145C26.6144 36.7499 27.854 33.3958 29.3852 32.1562C30.5519 30.9895 30.5519 29.1666 29.3852 27.9999L22.9686 21.6562ZM28.3644 31.2083C27.0519 31.8645 26.8332 35.3645 20.4165 32.3749C9.47899 27.3437 -1.38559 11.8853 2.11441 8.38534L3.79149 6.70825C4.37482 6.12492 5.32274 6.12492 5.90607 6.70825L12.3227 13.1249C12.9061 13.7083 12.9061 14.6562 12.3227 15.2395L10.0623 17.4999C7.8019 19.7603 15.3123 27.2708 17.5727 25.0103L19.8332 22.7499C20.4165 22.1666 21.3644 22.1666 21.9477 22.7499L28.3644 29.1666C28.9477 29.677 28.9477 30.6249 28.3644 31.2083Z" fill="white"/>
<path d="M18.1559 0C17.7184 0 17.4268 0.291667 17.4268 0.729167C17.4268 1.16667 17.7184 1.45833 18.1559 1.45833C26.6872 1.45833 33.6143 8.45833 33.5413 16.9896C33.5413 17.4271 33.833 17.7188 34.2705 17.7188C34.708 17.7188 34.9997 17.4271 34.9997 16.9896C35.0726 7.65625 27.4893 0 18.1559 0Z" fill="white"/>
<path d="M18.1559 4.59375C17.7184 4.59375 17.4268 4.88542 17.4268 5.32292C17.4268 5.76042 17.7184 6.05208 18.1559 6.05208C24.1351 6.05208 28.9476 10.9375 28.9476 16.9167C28.9476 17.8646 30.4059 17.8646 30.4059 16.9167C30.4059 10.1354 24.9372 4.66667 18.1559 4.59375Z" fill="white"/>
<path d="M24.2806 16.9167C24.2806 17.3542 24.5723 17.6459 25.0098 17.6459C25.4473 17.6459 25.7389 17.3542 25.7389 16.9167C25.7389 12.6876 22.3118 9.2605 18.0827 9.2605C17.6452 9.2605 17.3535 9.55216 17.3535 9.98966C17.3535 10.4272 17.6452 10.7188 18.0827 10.7188C21.5098 10.7188 24.3535 13.4897 24.2806 16.9167Z" fill="white"/>
</g>
<defs>
<clipPath id="clip0_193_975">
<rect width="35" height="35" fill="white"/>
</clipPath>
</defs>
</svg>
