<svg width="20" height="20" viewBox="0 0 20 20" fill="none" xmlns="http://www.w3.org/2000/svg">
<path d="M1.24995 5.63563C1.25286 5.78948 1.31241 5.93685 1.4172 6.04952L9.5422 14.8008C9.6007 14.8637 9.67154 14.9139 9.7503 14.9482C9.82907 14.9825 9.91406 15.0002 9.99998 15.0002C10.0859 15.0002 10.1709 14.9825 10.2497 14.9482C10.3284 14.9139 10.3993 14.8637 10.4578 14.8008L18.5828 6.04952C18.6953 5.92804 18.7551 5.76685 18.7489 5.60135C18.7427 5.43586 18.6711 5.27957 18.5498 5.16683C18.4283 5.05426 18.2672 4.9945 18.1017 5.00068C17.9362 5.00686 17.7799 5.07847 17.6672 5.19979L9.99968 13.4579L2.33218 5.19979C2.21944 5.07847 2.06317 5.00686 1.89768 5.00068C1.7322 4.9945 1.57102 5.05426 1.44955 5.16683C1.38512 5.22652 1.33399 5.29912 1.29949 5.3799C1.265 5.46068 1.24851 5.54781 1.24995 5.63563Z" fill="black"/>
</svg>
