<svg width="25" height="25" viewBox="0 0 25 25" fill="none" xmlns="http://www.w3.org/2000/svg">
<path d="M1.90234 4.57819H6.07813C6.21293 5.26389 6.58171 5.8815 7.12142 6.32544C7.66113 6.76937 8.33827 7.01208 9.03711 7.01208C9.73594 7.01208 10.4131 6.76937 10.9528 6.32544C11.4925 5.8815 11.8613 5.26389 11.9961 4.57819H23.0977C23.2531 4.57819 23.4021 4.51645 23.512 4.40657C23.6219 4.29668 23.6836 4.14765 23.6836 3.99225C23.6836 3.83685 23.6219 3.68781 23.512 3.57793C23.4021 3.46804 23.2531 3.40631 23.0977 3.40631H11.9961C11.8613 2.7206 11.4925 2.103 10.9528 1.65906C10.4131 1.21512 9.73594 0.972412 9.03711 0.972412C8.33827 0.972412 7.66113 1.21512 7.12142 1.65906C6.58171 2.103 6.21293 2.7206 6.07813 3.40631H1.90234C1.74694 3.40631 1.59791 3.46804 1.48802 3.57793C1.37814 3.68781 1.31641 3.83685 1.31641 3.99225C1.31641 4.14765 1.37814 4.29668 1.48802 4.40657C1.59791 4.51645 1.74694 4.57819 1.90234 4.57819ZM9.03516 2.1485C9.39982 2.1485 9.75629 2.25663 10.0595 2.45923C10.3627 2.66182 10.599 2.94977 10.7386 3.28668C10.8781 3.62358 10.9146 3.99429 10.8435 4.35195C10.7723 4.7096 10.5967 5.03812 10.3389 5.29598C10.081 5.55383 9.75251 5.72943 9.39486 5.80057C9.0372 5.87171 8.66649 5.8352 8.32958 5.69565C7.99268 5.5561 7.70473 5.31978 7.50213 5.01658C7.29954 4.71338 7.19141 4.35691 7.19141 3.99225C7.19244 3.50357 7.38702 3.03521 7.73257 2.68966C8.07811 2.34411 8.54648 2.14953 9.03516 2.1485Z" fill="white"/>
<path d="M23.0977 11.914H18.8594C18.7226 11.2305 18.3533 10.6154 17.8142 10.1735C17.275 9.73151 16.5995 9.48999 15.9023 9.48999C15.2052 9.48999 14.5297 9.73151 13.9905 10.1735C13.4514 10.6154 13.0821 11.2305 12.9453 11.914H1.90234C1.74694 11.914 1.59791 11.9758 1.48802 12.0857C1.37814 12.1955 1.31641 12.3446 1.31641 12.5C1.31641 12.6554 1.37814 12.8044 1.48802 12.9143C1.59791 13.0242 1.74694 13.0859 1.90234 13.0859H12.9453C13.0821 13.7695 13.4514 14.3846 13.9905 14.8265C14.5297 15.2685 15.2052 15.51 15.9023 15.51C16.5995 15.51 17.275 15.2685 17.8142 14.8265C18.3533 14.3846 18.7226 13.7695 18.8594 13.0859H23.0977C23.2531 13.0859 23.4021 13.0242 23.512 12.9143C23.6219 12.8044 23.6836 12.6554 23.6836 12.5C23.6836 12.3446 23.6219 12.1955 23.512 12.0857C23.4021 11.9758 23.2531 11.914 23.0977 11.914ZM15.9023 14.3437C15.5377 14.3437 15.1812 14.2356 14.878 14.033C14.5748 13.8304 14.3385 13.5425 14.1989 13.2056C14.0594 12.8687 14.0229 12.4979 14.094 12.1403C14.1652 11.7826 14.3408 11.4541 14.5986 11.1963C14.8565 10.9384 15.185 10.7628 15.5426 10.6917C15.9003 10.6205 16.271 10.657 16.6079 10.7966C16.9448 10.9361 17.2328 11.1724 17.4354 11.4756C17.638 11.7788 17.7461 12.1353 17.7461 12.5C17.7451 12.9887 17.5505 13.457 17.2049 13.8026C16.8594 14.1481 16.391 14.3427 15.9023 14.3437Z" fill="white"/>
<path d="M23.0977 20.4219H12.6016C12.4648 19.7383 12.0955 19.1232 11.5563 18.6813C11.0172 18.2393 10.3416 17.9978 9.64453 17.9978C8.94742 17.9978 8.27184 18.2393 7.73272 18.6813C7.19361 19.1232 6.82425 19.7383 6.6875 20.4219H1.90234C1.74694 20.4219 1.59791 20.4836 1.48802 20.5935C1.37814 20.7034 1.31641 20.8524 1.31641 21.0078C1.31641 21.1632 1.37814 21.3122 1.48802 21.4221C1.59791 21.532 1.74694 21.5937 1.90234 21.5937H6.6875C6.82425 22.2773 7.19361 22.8924 7.73272 23.3343C8.27184 23.7763 8.94742 24.0178 9.64453 24.0178C10.3416 24.0178 11.0172 23.7763 11.5563 23.3343C12.0955 22.8924 12.4648 22.2773 12.6016 21.5937H23.0977C23.2531 21.5937 23.4021 21.532 23.512 21.4221C23.6219 21.3122 23.6836 21.1632 23.6836 21.0078C23.6836 20.8524 23.6219 20.7034 23.512 20.5935C23.4021 20.4836 23.2531 20.4219 23.0977 20.4219ZM9.64453 22.8515C9.27987 22.8515 8.9234 22.7434 8.6202 22.5408C8.317 22.3382 8.08068 22.0503 7.94113 21.7134C7.80158 21.3765 7.76507 21.0057 7.83621 20.6481C7.90735 20.2904 8.08295 19.9619 8.3408 19.7041C8.59866 19.4462 8.92718 19.2706 9.28483 19.1995C9.64249 19.1283 10.0132 19.1648 10.3501 19.3044C10.687 19.4439 10.975 19.6803 11.1776 19.9835C11.3801 20.2867 11.4883 20.6431 11.4883 21.0078C11.4883 21.4968 11.294 21.9657 10.9483 22.3115C10.6025 22.6573 10.1335 22.8515 9.64453 22.8515Z" fill="white"/>
</svg>
