<svg width="25" height="30" viewBox="0 0 25 30" fill="none" xmlns="http://www.w3.org/2000/svg">
<path d="M0 25.811C0 27.7968 1.62108 29.4118 3.61446 29.4118H21.3855C23.3789 29.4118 25 27.7968 25 25.811C25 25.787 24.9988 25.7624 24.9958 25.7384L23.1928 10.9692C23.1723 9.00135 21.5584 7.4062 19.5783 7.4062H18.0223V5.50139C18.0223 2.46773 15.5452 0 12.5 0C9.45482 0 6.97771 2.46773 6.97771 5.50139V7.4062H5.42169C3.44157 7.4062 1.82771 9.00075 1.80723 10.9692L0.00421685 25.7378C0.0012048 25.7624 0 25.787 0 25.811ZM8.18253 5.50199C8.18253 3.13028 10.1193 1.20086 12.5 1.20086C14.8807 1.20086 16.8175 3.13028 16.8175 5.50199V7.4068H8.18253V5.50199ZM3.00783 11.0802C3.01084 11.0562 3.01205 11.0316 3.01205 11.0076C3.01205 9.68369 4.09277 8.60706 5.42169 8.60706H6.97771V10.5857C6.97771 10.9176 7.24699 11.1858 7.58012 11.1858C7.91325 11.1858 8.18253 10.9176 8.18253 10.5857V8.60706H16.8175V10.5857C16.8175 10.9176 17.0867 11.1858 17.4199 11.1858C17.753 11.1858 18.0223 10.9176 18.0223 10.5857V8.60706H19.5783C20.9072 8.60706 21.988 9.68369 21.988 11.0076C21.988 11.0316 21.9892 11.0562 21.9922 11.0802L23.7952 25.8458C23.7765 27.1535 22.703 28.2115 21.3855 28.2115H3.61446C2.29699 28.2115 1.22349 27.1529 1.20482 25.8458L3.00783 11.0802Z" fill="white"/>
</svg>
