<svg width="464" height="405" viewBox="0 0 464 405" fill="none" xmlns="http://www.w3.org/2000/svg">
<path d="M214.583 204.975C203.707 177.679 194.716 155.631 188.33 140.49C181.944 125.349 178.145 117.05 177.523 117.285C176.964 117.503 179.63 126.174 184.964 141.734C190.362 157.277 198.411 179.646 208.537 207.212C218.792 234.744 230.996 267.508 244.531 303.957C247.999 313.578 252.975 322.178 254.2 331.097C254.773 335.534 254.36 339.618 252.259 343.538C250.052 347.828 247.457 351.949 244.23 355.759C231.406 371.047 211.934 381.471 191.273 387.966C180.847 391.239 170.228 393.537 159.671 394.79C149.161 395.962 138.48 396.495 128.853 394.827C119.163 393.176 110.884 388.612 105.095 381.326C99.2425 374.057 95.8986 365.157 92.4052 355.954C78.4108 319.833 66.5729 286.903 56.4463 259.337C46.3837 231.753 38.0153 209.471 31.9315 194.18C28.9644 186.686 26.5065 180.836 24.7712 176.917C25.803 177.188 26.5278 177.337 27.2355 177.421C28.0881 177.535 28.9237 177.585 29.7592 177.635C33.0201 177.789 36.0334 177.53 39.0295 177.207C44.9579 176.577 50.5575 175.488 56.0418 174.224C67.0275 171.76 77.2964 168.666 86.9854 165.453C106.346 158.964 123.319 151.744 137.151 144.818C150.983 137.892 161.674 131.259 168.351 125.497C171.689 122.616 173.971 119.881 174.991 117.552C176.041 115.079 174.956 113.588 174.752 113.849C174.45 113.998 174.677 115.102 173.387 116.681C172.115 118.323 169.645 120.355 166.216 122.644C159.231 127.256 148.348 132.912 134.421 138.973C120.477 144.97 103.588 151.482 84.4269 157.438C74.8782 160.408 64.7497 163.259 54.1132 165.492C48.8675 166.624 43.4425 167.598 38.0426 168.154C35.366 168.392 32.6085 168.583 30.1191 168.496C29.4924 168.459 28.8658 168.421 28.367 168.349C27.8043 168.294 27.1434 168.129 27.3055 168.223C27.2119 168.385 27.6034 167.8 27.9823 167.425C28.3441 166.985 28.7869 166.593 29.2126 166.136C31.0136 164.42 33.2494 162.794 35.4385 161.248C39.8977 158.203 44.6342 155.427 49.4221 152.843C58.9341 147.691 68.5066 143.276 77.7173 139.301C96.1559 131.415 113.228 125.333 127.728 120.9C142.228 116.466 154.219 113.664 162.517 112.674C166.698 112.17 169.844 112.15 171.873 112.565C173.903 112.98 174.433 113.934 174.752 113.849C175.106 113.891 174.882 112.033 172.519 110.885C170.238 109.783 166.729 109.216 162.33 109.162C153.485 109.134 141.028 110.965 126.003 114.717C110.978 118.469 93.4148 123.997 74.49 131.603C65.0361 135.437 55.1737 139.793 45.2611 144.983C40.2814 147.619 35.2892 150.464 30.3529 153.773C27.8614 155.469 25.468 157.274 23.0496 159.498C22.4493 160.07 21.849 160.642 21.2658 161.278C20.6826 161.914 20.1462 162.468 19.2868 163.863C17.6103 166.299 17.1277 169.1 17.9578 171.686C18.8425 173.71 20.5068 175.319 22.6733 176.246C23.8504 180.383 25.8529 186.834 28.6467 195.471C33.7889 211.083 41.2156 233.686 50.4005 261.573C59.7772 289.409 70.9292 322.592 84.6725 359.053C88.0164 367.954 91.4939 378.12 98.431 386.879C101.923 391.219 106.258 395.126 111.266 397.964C116.29 400.865 121.842 402.665 127.398 403.711C138.619 405.706 149.683 405.07 160.884 403.919C172.033 402.575 183.181 400.205 194.118 396.794C215.896 389.863 236.803 378.918 251.262 361.548C254.833 357.234 257.802 352.465 260.303 347.479C263.135 342.199 263.826 335.574 262.946 329.987C261.197 318.604 255.671 309.741 252.541 301.126C238.175 264.899 225.332 232.306 214.583 204.975Z" fill="#694F42" fill-opacity="0.05"/>
<path d="M73.4722 115.023C78.6122 118.098 81.7294 119.25 82.0101 118.764C82.9038 117.497 71.536 110.609 58.9382 94.5291C52.8162 86.5102 46.6825 75.8912 43.675 63.1329C40.5739 50.5367 40.6365 35.1747 46.7076 22.039L47.7027 20.1282C47.7027 20.1282 47.6856 20.0643 47.7838 20.175L48.859 21.12L50.9457 23.027C52.3155 24.3042 53.6853 25.5813 54.9911 26.8755C60.3424 32.0182 65.1653 37.2339 69.4425 42.4589C78.0438 52.8277 84.0964 63.3999 87.8501 72.807C95.4729 91.7958 94.1078 105.109 95.6167 105.116C96.1794 105.171 97.2326 101.943 97.5494 95.9663C97.8491 89.926 97.1863 81.0608 93.9302 70.6983C90.674 60.3359 84.7777 48.5572 76.0005 37.2764C71.6673 31.5869 66.6778 26.0047 61.2409 20.5425C59.8539 19.2015 58.467 17.8604 57.063 16.4555C55.3816 14.7824 53.6362 13.1263 51.827 11.4875C50.3933 10.2275 48.9299 9.11246 47.5133 7.9164L46.4381 6.97142C46.2246 6.68608 46.0842 6.92921 45.9267 7.10843L45.4542 7.64607L43.7264 9.8902C42.5474 11.3707 41.4495 12.898 40.403 14.617L39.3268 16.481L38.5657 17.9866C31.1 34.0992 31.7087 51.1995 35.5233 65.1801C39.3893 79.3525 46.7854 90.5923 53.9986 98.5929C61.3099 106.704 68.4429 111.849 73.4722 115.023Z" fill="#694F42" fill-opacity="0.05"/>
<path d="M461.146 262.288C459.727 259.037 458.091 256.256 457.168 253.831C454.774 247.965 452.431 242.29 450.187 236.726C445.668 225.743 441.402 215.445 437.52 206.073C429.71 187.408 423.26 172.284 418.64 161.944C414.02 151.605 411.149 146.003 410.527 146.238C409.969 146.456 411.66 152.511 415.274 163.189C418.906 173.93 424.461 189.294 431.457 208.245C435.019 217.704 438.902 228.104 443.037 239.19C445.137 244.724 447.305 250.514 449.571 256.415C452.141 263.194 455.791 268.381 454.97 272.985C454.687 275.253 453.517 277.279 451.325 279.58C449.231 281.99 446.876 284.197 444.313 286.391C439.216 290.634 433.568 294.613 427.384 298.12C415.095 305.181 401.453 311.028 387.056 315.845C372.676 320.726 358.243 324.387 344.159 326.791C337.148 327.985 330.197 328.888 323.663 328.789C317.146 328.754 310.947 327.607 306.655 324.372C302.107 321.207 300.063 316.137 297.665 309.997C295.335 304.114 293.12 298.405 290.957 292.887C286.804 281.737 283.003 271.384 279.505 261.908C270.138 235.646 262.656 216.414 258.472 207.191C259.359 207.432 260.066 207.517 260.71 207.618C261.563 207.732 262.398 207.783 263.234 207.833C266.495 207.987 269.508 207.727 272.504 207.404C278.433 206.774 284.032 205.685 289.516 204.421C300.502 201.957 310.771 198.863 320.46 195.65C339.821 189.161 356.794 181.941 370.626 175.015C384.458 168.089 395.149 161.457 401.89 155.677C405.228 152.796 407.509 150.061 408.53 147.733C409.579 145.259 408.495 143.769 408.291 144.029C407.988 144.178 408.215 145.282 406.926 146.861C405.653 148.503 403.183 150.535 399.755 152.824C392.77 157.436 381.886 163.092 367.959 169.153C354.015 175.15 337.127 181.662 317.965 187.618C308.417 190.588 298.288 193.439 287.652 195.672C282.406 196.804 276.981 197.778 271.581 198.334C268.905 198.572 266.147 198.763 263.658 198.676C263.031 198.639 262.404 198.601 261.906 198.529C261.343 198.475 260.682 198.309 260.844 198.403C260.751 198.565 261.142 197.98 261.521 197.605C261.883 197.165 262.325 196.773 262.751 196.316C264.552 194.6 266.788 192.974 268.977 191.428C273.436 188.384 278.173 185.607 282.961 183.023C292.473 177.871 302.045 173.456 311.256 169.481C329.695 161.595 346.767 155.513 361.267 151.08C375.767 146.647 387.758 143.844 396.056 142.854C400.237 142.35 403.383 142.33 405.412 142.745C407.441 143.16 407.971 144.114 408.291 144.029C408.645 144.071 408.421 142.213 406.058 141.065C403.776 139.964 400.267 139.397 395.868 139.342C387.024 139.314 374.567 141.145 359.542 144.897C344.517 148.649 326.953 154.177 308.029 161.783C298.575 165.617 288.712 169.973 278.8 175.163C273.82 177.799 268.828 180.644 263.892 183.954C261.4 185.649 259.007 187.455 256.588 189.678C255.988 190.25 255.388 190.822 254.804 191.458C254.221 192.094 253.685 192.648 252.825 194.043C251.149 196.479 250.666 199.28 251.496 201.867C252.364 203.826 253.947 205.389 255.986 206.35C256.757 209.226 257.882 213.171 259.363 218.187C262.611 229.031 267.353 244.681 273.425 264.017C276.492 273.676 279.945 284.26 283.858 295.543C285.847 301.175 287.951 306.983 290.235 312.947C291.359 315.866 292.373 318.882 294.18 322.303C295.889 325.613 298.493 328.683 301.68 331.117C308.152 336.097 316.214 337.293 323.601 337.506C331.052 337.702 338.404 336.759 345.704 335.625C360.334 333.212 375.231 329.495 390.059 324.494C404.886 319.494 419.069 313.364 431.992 305.86C438.445 302.075 444.552 297.767 450.122 292.986C452.89 290.532 455.495 287.984 457.887 285.151C460.331 282.51 462.943 278.453 463.398 274.015C463.9 269.497 462.548 265.474 461.146 262.288Z" fill="#694F42" fill-opacity="0.05"/>
<path d="M307.063 145.395C312.203 148.47 315.32 149.622 315.601 149.135C316.494 147.868 305.126 140.981 292.529 124.901C286.407 116.882 280.273 106.263 277.265 93.5047C274.164 80.9086 274.227 65.5465 280.298 52.4108L281.293 50.5C281.293 50.5 281.276 50.4361 281.374 50.5468L282.45 51.4918L284.536 53.3989C285.906 54.676 287.276 55.9531 288.582 57.2473C293.933 62.39 298.756 67.6058 303.033 72.8307C311.634 83.1995 317.687 93.7718 321.441 103.179C329.063 122.168 327.698 135.481 329.207 135.488C329.77 135.542 330.823 132.314 331.14 126.338C331.457 120.362 330.777 111.433 327.521 101.07C324.264 90.7077 318.368 78.929 309.591 67.6482C305.258 61.9587 300.268 56.3766 294.831 50.9143C293.444 49.5733 292.058 48.2323 290.653 46.8273C288.908 45.1713 287.099 43.5324 285.29 41.8935C283.856 40.6336 282.393 39.5185 280.976 38.3225L279.918 37.4414C279.704 37.1561 279.564 37.3992 279.407 37.5784L278.934 38.1161L277.206 40.3602C276.027 41.8407 274.929 43.368 273.883 45.087L272.807 46.951L272.045 48.4566C264.58 64.5691 265.188 81.6695 269.003 95.6501C272.869 109.823 280.265 121.062 287.478 129.063C294.836 137.093 301.969 142.238 307.063 145.395Z" fill="#694F42" fill-opacity="0.05"/>
<path d="M323.406 32.0229C341.189 42.3978 354.352 52.9146 355.169 51.8736C355.973 51.0414 343.904 38.7245 325.716 28.1157C307.558 17.3619 290.963 12.6973 290.645 13.8101C290.169 15.1022 305.653 21.503 323.406 32.0229Z" fill="#694F42" fill-opacity="0.05"/>
<path d="M326.429 15.1825C342.429 24.528 352.937 35.6192 353.98 34.6546C354.9 33.9971 345.468 21.0419 328.786 11.1942C312.133 1.20161 296.304 -0.859531 296.131 0.283022C295.817 1.6687 310.57 5.59384 326.429 15.1825Z" fill="#694F42" fill-opacity="0.05"/>
<path d="M26.4654 83.0208C27.6284 82.5036 24.4876 72.3158 20.3467 59.9297C16.1418 47.5608 12.4429 37.591 11.1645 37.9335C9.9501 38.2589 11.7019 48.8875 15.9581 61.4482C20.2143 74.0089 25.3023 83.5379 26.4654 83.0208Z" fill="#694F42" fill-opacity="0.05"/>
<path d="M9.38386 78.0756C10.5812 77.6863 8.75993 69.611 6.4763 59.8101C4.12875 50.0262 2.06899 42.0834 0.803188 42.2171C-0.445482 42.4146 -0.384267 50.8244 2.03179 60.864C4.40106 70.9845 8.2037 78.5288 9.38386 78.0756Z" fill="#694F42" fill-opacity="0.05"/>
</svg>
