<svg width="35" height="25" viewBox="0 0 35 25" fill="none" xmlns="http://www.w3.org/2000/svg">
<path d="M32.3503 24.9368H2.65121C1.18965 24.9368 0 23.7471 0 22.2856V2.47553C0 1.1102 1.11093 0 2.47626 0H32.5245C33.8898 0 35 1.1102 35 2.47553V22.2863C35.0007 23.7471 33.8118 24.9368 32.3503 24.9368ZM2.47699 1.45718C1.91496 1.45718 1.45864 1.9135 1.45864 2.4748V22.2856C1.45864 22.9431 1.99369 23.4789 2.65193 23.4789H32.351C33.0085 23.4789 33.5435 22.9438 33.5435 22.2856V2.47553C33.5435 1.9135 33.0872 1.45791 32.5259 1.45791L2.47699 1.45718Z" fill="white"/>
<path d="M17.5015 15.7525C16.7594 15.7525 16.0195 15.4944 15.4283 14.9776L3.60468 4.63157C3.30144 4.36623 3.27082 3.90553 3.53543 3.60301C3.80077 3.29831 4.26147 3.26915 4.56399 3.53376L16.3884 13.8791C17.0233 14.4345 17.9804 14.4345 18.6153 13.8791L30.4389 3.53376C30.7407 3.26915 31.2014 3.29831 31.4675 3.60301C31.7321 3.90553 31.7015 4.36623 31.3982 4.63157L19.5746 14.9769C18.9834 15.4937 18.2421 15.7525 17.5015 15.7525Z" fill="white"/>
</svg>
