<svg width="35" height="35" viewBox="0 0 35 35" fill="none" xmlns="http://www.w3.org/2000/svg">
<g clip-path="url(#clip0_193_905)">
<path d="M25.5258 0H9.47416C4.25002 0 0 4.25002 0 9.47416V25.526C0 30.7499 4.25002 34.9999 9.47416 34.9999H25.526C30.7499 34.9999 34.9999 30.7499 34.9999 25.526V9.47416C34.9999 4.25002 30.7499 0 25.5258 0ZM32.9481 25.526C32.9481 29.6185 29.6185 32.9481 25.5258 32.9481H9.47416C5.38142 32.9481 2.05185 29.6185 2.05185 25.526V9.47416C2.05185 5.38142 5.38142 2.05185 9.47416 2.05185H25.526C29.6185 2.05185 32.9481 5.38142 32.9481 9.47416V25.526Z" fill="white" fill-opacity="0.9"/>
<path d="M17.4997 7.92993C12.2227 7.92993 7.92969 12.2229 7.92969 17.5C7.92969 22.777 12.2227 27.07 17.4997 27.07C22.7767 27.07 27.0697 22.777 27.0697 17.5C27.0697 12.2229 22.7767 7.92993 17.4997 7.92993ZM17.4997 25.0181C13.3544 25.0181 9.98153 21.6456 9.98153 17.5C9.98153 13.3546 13.3544 9.98178 17.4997 9.98178C21.6453 9.98178 25.0179 13.3546 25.0179 17.5C25.0179 21.6456 21.6453 25.0181 17.4997 25.0181Z" fill="white" fill-opacity="0.9"/>
<path d="M27.2985 4.53125C25.7391 4.53125 24.4707 5.7999 24.4707 7.35908C24.4707 8.91852 25.7391 10.1872 27.2985 10.1872C28.858 10.1872 30.1266 8.91852 30.1266 7.35908C30.1266 5.79963 28.858 4.53125 27.2985 4.53125ZM27.2985 8.13506C26.8708 8.13506 26.5225 7.78686 26.5225 7.35908C26.5225 6.93103 26.8708 6.5831 27.2985 6.5831C27.7266 6.5831 28.0748 6.93103 28.0748 7.35908C28.0748 7.78686 27.7266 8.13506 27.2985 8.13506Z" fill="white" fill-opacity="0.9"/>
</g>
<defs>
<clipPath id="clip0_193_905">
<rect width="35" height="35" fill="white"/>
</clipPath>
</defs>
</svg>
