<svg width="35" height="35" viewBox="0 0 35 35" fill="none" xmlns="http://www.w3.org/2000/svg">
<path d="M29.5974 9.50723H5.41563C5.04484 9.50556 4.68971 9.35752 4.42753 9.09533C4.16534 8.83314 4.0173 8.47802 4.01562 8.10723V6.08359C4.0173 5.71281 4.16534 5.35768 4.42753 5.09549C4.68971 4.8333 5.04484 4.68527 5.41563 4.68359H29.5974C29.9682 4.68527 30.3234 4.8333 30.5855 5.09549C30.8477 5.35768 30.9958 5.71281 30.9974 6.08359V8.10723C30.9958 8.47802 30.8477 8.83314 30.5855 9.09533C30.3234 9.35752 29.9682 9.50556 29.5974 9.50723ZM5.41563 5.63814C5.29748 5.63814 5.18418 5.68507 5.10064 5.76861C5.0171 5.85215 4.97017 5.96545 4.97017 6.08359V8.10723C4.97017 8.22537 5.0171 8.33868 5.10064 8.42221C5.18418 8.50575 5.29748 8.55268 5.41563 8.55268H29.5974C29.6559 8.55268 29.7139 8.54116 29.7679 8.51878C29.822 8.49639 29.8711 8.46358 29.9124 8.42221C29.9538 8.38085 29.9866 8.33174 30.009 8.2777C30.0314 8.22365 30.0429 8.16573 30.0429 8.10723V6.08359C30.0429 6.0251 30.0314 5.96717 30.009 5.91313C29.9866 5.85908 29.9538 5.80997 29.9124 5.76861C29.8711 5.72725 29.822 5.69443 29.7679 5.67205C29.7139 5.64966 29.6559 5.63814 29.5974 5.63814H5.41563Z" fill="black"/>
<path d="M24.958 33.25H10.0416C9.45089 33.2522 8.88091 33.0323 8.44476 32.6339C8.00861 32.2354 7.73817 31.6876 7.68708 31.0991L5.61253 9.07455C5.60561 9.00848 5.61219 8.94169 5.63188 8.87824C5.65157 8.81479 5.68396 8.75601 5.72708 8.70546C5.772 8.65758 5.82619 8.61935 5.88637 8.59309C5.94654 8.56683 6.01143 8.5531 6.07708 8.55273H28.9162C28.9818 8.5531 29.0467 8.56683 29.1069 8.59309C29.1671 8.61935 29.2213 8.65758 29.2662 8.70546C29.3104 8.7555 29.344 8.81405 29.3648 8.87752C29.3855 8.94099 29.3931 9.00804 29.3871 9.07455L27.3125 31.0991C27.2614 31.6876 26.991 32.2354 26.5549 32.6339C26.1187 33.0323 25.5487 33.2522 24.958 33.25ZM6.61162 9.50728L8.63526 31.01C8.67 31.3588 8.83318 31.6823 9.09309 31.9175C9.353 32.1527 9.69108 32.2829 10.0416 32.2827H24.958C25.3085 32.2829 25.6466 32.1527 25.9065 31.9175C26.1664 31.6823 26.3296 31.3588 26.3644 31.01L28.388 9.50728H6.61162Z" fill="black"/>
<path d="M22.7184 5.63818H12.2821C12.1956 5.6378 12.1108 5.61391 12.0368 5.56908C11.9628 5.52424 11.9024 5.46014 11.8621 5.38364C11.8184 5.30936 11.7954 5.22478 11.7954 5.13864C11.7954 5.05249 11.8184 4.96791 11.8621 4.89364L13.4402 2.58364C13.6143 2.32839 13.8476 2.11919 14.1203 1.97399C14.393 1.82879 14.6968 1.75193 15.0057 1.75H19.9439C20.2528 1.75193 20.5566 1.82879 20.8293 1.97399C21.102 2.11919 21.3353 2.32839 21.5093 2.58364L23.0875 4.89364C23.1312 4.96791 23.1542 5.05249 23.1542 5.13864C23.1542 5.22478 23.1312 5.30936 23.0875 5.38364C23.0515 5.45305 22.9991 5.51256 22.9347 5.55695C22.8704 5.60133 22.7961 5.62923 22.7184 5.63818ZM13.173 4.68364H21.8148L20.7457 3.11818C20.6605 2.99046 20.545 2.88584 20.4096 2.81366C20.2741 2.74148 20.1228 2.70399 19.9693 2.70455H15.0311C14.8776 2.70399 14.7264 2.74148 14.5909 2.81366C14.4554 2.88584 14.3399 2.99046 14.2548 3.11818L13.173 4.68364Z" fill="black"/>
<path d="M12.7975 29.7118C12.6804 29.7109 12.5676 29.6669 12.4808 29.5883C12.394 29.5097 12.3391 29.4019 12.3266 29.2854L10.5893 12.5427C10.5841 12.421 10.6256 12.3018 10.7054 12.2097C10.7851 12.1176 10.8971 12.0595 11.0183 12.0473C11.1396 12.0351 11.2609 12.0697 11.3574 12.1441C11.4539 12.2185 11.5184 12.3269 11.5375 12.4472L13.2748 29.1836C13.2872 29.3093 13.2493 29.4348 13.1694 29.5326C13.0895 29.6304 12.9741 29.6926 12.8484 29.7054L12.7975 29.7118Z" fill="black"/>
<path d="M17.5002 29.7118C17.3742 29.7101 17.2537 29.6593 17.1646 29.5702C17.0754 29.481 17.0246 29.3606 17.0229 29.2345V12.4918C17.0229 12.3652 17.0732 12.2438 17.1627 12.1543C17.2522 12.0648 17.3736 12.0145 17.5002 12.0145C17.6268 12.0145 17.7482 12.0648 17.8377 12.1543C17.9272 12.2438 17.9775 12.3652 17.9775 12.4918V29.2345C17.9758 29.3606 17.925 29.481 17.8359 29.5702C17.7467 29.6593 17.6263 29.7101 17.5002 29.7118Z" fill="black"/>
<path d="M22.2027 29.7118H22.1518C22.0262 29.6989 21.9107 29.6368 21.8308 29.539C21.7509 29.4412 21.713 29.3157 21.7255 29.19L23.4627 12.4536C23.4655 12.3887 23.4816 12.325 23.5098 12.2665C23.5381 12.208 23.578 12.1559 23.6271 12.1133C23.6762 12.0708 23.7335 12.0387 23.7955 12.0191C23.8574 11.9995 23.9227 11.9927 23.9874 11.9992C24.052 12.0057 24.1147 12.0254 24.1715 12.057C24.2283 12.0885 24.278 12.1314 24.3177 12.1828C24.3573 12.2343 24.3861 12.2934 24.4021 12.3563C24.4181 12.4193 24.4211 12.4849 24.4109 12.5491L22.6737 29.2727C22.6641 29.3915 22.6105 29.5024 22.5234 29.5836C22.4363 29.6649 22.3219 29.7106 22.2027 29.7118Z" fill="black"/>
</svg>
