<svg width="17" height="20" viewBox="0 0 17 20" fill="none" xmlns="http://www.w3.org/2000/svg">
<path d="M0 17.5515C0 18.9018 1.10234 20 2.45783 20H14.5422C15.8977 20 17 18.9018 17 17.5515C17 17.5351 16.9992 17.5184 16.9971 17.5021L15.7711 7.45904C15.7572 6.12092 14.6597 5.03622 13.3133 5.03622H12.2552V3.74095C12.2552 1.67806 10.5707 0 8.5 0C6.42928 0 4.74484 1.67806 4.74484 3.74095V5.03622H3.68675C2.34027 5.03622 1.24284 6.12051 1.22892 7.45904L0.00286746 17.5017C0.000819265 17.5184 0 17.5351 0 17.5515ZM5.56412 3.74135C5.56412 2.12859 6.88111 0.816585 8.5 0.816585C10.1189 0.816585 11.4359 2.12859 11.4359 3.74135V5.03663H5.56412V3.74135ZM2.04533 7.53453C2.04737 7.51821 2.04819 7.50148 2.04819 7.48516C2.04819 6.58491 2.78308 5.8528 3.68675 5.8528H4.74484V7.19827C4.74484 7.42394 4.92795 7.60636 5.15448 7.60636C5.38101 7.60636 5.56412 7.42394 5.56412 7.19827V5.8528H11.4359V7.19827C11.4359 7.42394 11.619 7.60636 11.8455 7.60636C12.072 7.60636 12.2552 7.42394 12.2552 7.19827V5.8528H13.3133C14.2169 5.8528 14.9518 6.58491 14.9518 7.48516C14.9518 7.50148 14.9526 7.51821 14.9547 7.53453L16.1807 17.5751C16.168 18.4644 15.438 19.1838 14.5422 19.1838H2.45783C1.56195 19.1838 0.831976 18.464 0.819277 17.5751L2.04533 7.53453Z" fill="white"/>
</svg>
