<svg width="399" height="452" viewBox="0 0 399 452" fill="none" xmlns="http://www.w3.org/2000/svg">
<path d="M192.199 255.862C196.43 226.775 199.669 203.178 201.709 186.867C203.75 170.556 204.609 161.466 203.953 161.359C203.36 161.269 201.333 170.114 198.171 186.262C195.073 202.427 190.858 225.83 185.843 254.776C180.956 283.756 175.142 318.244 168.636 356.589C166.829 366.658 166.838 376.598 163.439 384.938C161.715 389.068 159.315 392.399 155.534 394.744C151.476 397.357 147.167 399.629 142.466 401.316C123.71 408.145 101.628 407.437 80.4806 402.73C69.811 400.351 59.4623 397.029 49.6902 392.835C39.9993 388.593 30.4796 383.713 22.9742 377.453C15.4048 371.176 10.5153 363.082 9.14478 353.874C7.71037 344.65 9.26512 335.267 10.8416 325.547C16.7844 287.256 22.9997 252.807 28.0145 223.861C33.0933 194.933 36.9888 171.444 39.3662 155.154C40.5441 147.178 41.3404 140.881 41.7975 136.618C42.5556 137.369 43.1093 137.86 43.6801 138.287C44.3617 138.812 45.0604 139.274 45.7592 139.735C48.5072 141.499 51.2474 142.782 54.0046 144C59.4552 146.42 64.8511 148.277 70.2344 149.925C80.9838 153.285 91.4274 155.741 101.428 157.804C121.446 161.866 139.761 164.101 155.208 165.019C170.655 165.937 183.234 165.538 191.9 163.886C196.233 163.06 199.578 161.831 201.626 160.324C203.773 158.707 203.579 156.873 203.272 156.996C202.935 156.975 202.58 158.044 200.673 158.767C198.749 159.553 195.593 160.078 191.478 160.346C183.12 160.848 170.862 160.305 155.766 158.59C140.687 156.81 122.799 154.005 103.22 149.581C93.4627 147.378 83.2624 144.782 72.9308 141.397C67.8204 139.753 62.6335 137.884 57.6773 135.665C55.2397 134.532 52.7553 133.318 50.642 131.998C50.118 131.652 49.5939 131.306 49.1978 130.994C48.7377 130.665 48.2479 130.191 48.3415 130.353C48.1794 130.447 48.8108 130.137 49.3269 130.001C49.8601 129.801 50.4401 129.682 51.0373 129.5C53.4556 128.914 56.2061 128.623 58.8756 128.379C64.2614 127.972 69.7533 127.936 75.1938 128.092C86.0109 128.386 96.5117 129.349 106.479 130.513C126.397 132.903 144.229 136.173 159.008 139.585C173.787 142.997 185.576 146.567 193.26 149.859C197.134 151.514 199.869 153.069 201.42 154.444C202.97 155.819 202.952 156.911 203.272 156.996C203.557 157.21 204.292 155.488 202.82 153.312C201.394 151.216 198.638 148.97 194.854 146.723C187.206 142.275 175.499 137.631 160.606 133.366C145.713 129.101 127.733 125.106 107.534 122.229C97.4258 120.823 86.7036 119.663 75.52 119.202C69.8876 118.995 64.14 118.962 58.2085 119.36C55.2022 119.583 52.2255 119.95 49.0183 120.667C48.2121 120.862 47.406 121.057 46.5828 121.316C45.7596 121.575 45.0174 121.788 43.5753 122.566C40.9046 123.838 39.0855 126.023 38.511 128.679C38.2653 130.874 38.9023 133.101 40.3156 134.987C39.266 139.16 37.7742 145.75 35.8747 154.63C32.5211 170.726 27.6495 194.022 21.6584 222.775C15.8592 251.579 8.9234 285.904 2.59242 324.365C1.03767 333.748 -1.03441 344.294 0.59395 355.352C1.44866 360.858 3.24989 366.411 6.16897 371.374C9.07092 376.4 12.98 380.737 17.2693 384.422C25.9929 391.762 35.8962 396.745 46.1751 401.35C56.5055 405.763 67.3486 409.285 78.5297 411.801C100.862 416.689 124.449 417.663 145.662 409.847C150.914 407.897 155.871 405.25 160.531 402.182C165.626 399.024 169.538 393.631 171.57 388.35C175.749 377.614 175.394 367.172 176.991 358.143C182.666 319.574 187.841 284.915 192.199 255.862Z" fill="#694F42" fill-opacity="0.05"/>
<path d="M114.945 107.357C117.86 112.593 119.984 115.149 120.471 114.868C121.879 114.218 115.476 102.565 112.605 82.334C111.312 72.3252 111.309 60.058 115.085 47.5012C118.699 35.0379 126.437 21.761 138.266 13.4179L140.084 12.2603C140.084 12.2603 140.101 12.1964 140.131 12.3414L140.59 13.6979L141.443 16.3937C141.991 18.1851 142.539 19.9766 143.023 21.751C145.087 28.8826 146.656 35.8133 147.748 42.4791C150.014 55.7637 149.969 67.9498 148.516 77.9767C145.622 98.2394 137.781 109.09 139.084 109.851C139.545 110.18 142.071 107.91 145.335 102.891C148.616 97.8081 152.476 89.7967 154.838 79.191C157.2 68.5853 157.983 55.4322 156.022 41.2695C155.113 34.1733 153.583 26.8419 151.605 19.3905C151.074 17.5351 150.543 15.6797 150.03 13.7603C149.41 11.4699 148.726 9.16232 147.979 6.83761C147.367 5.029 146.657 3.33113 146.028 1.58645L145.569 0.22999C145.527 -0.123962 145.283 0.0164548 145.057 0.0929339L144.379 0.322371L141.76 1.40226C139.998 2.09516 138.283 2.86913 136.517 3.83492L134.652 4.91145L133.239 5.83502C118.713 16.0595 110.687 31.1781 106.999 45.1975C103.26 59.4088 104.046 72.8452 106.293 83.3839C108.57 94.0677 112.176 102.092 114.945 107.357Z" fill="#694F42" fill-opacity="0.05"/>
<path d="M377.134 428.835C377.53 425.309 377.504 422.081 377.917 419.519C378.777 413.239 379.586 407.151 380.425 401.209C382.003 389.434 383.458 378.379 384.783 368.318C387.353 348.243 389.329 331.914 390.498 320.646C391.667 309.378 391.982 303.089 391.325 302.982C390.733 302.892 389.169 308.983 386.96 320.041C384.734 331.163 381.862 347.251 378.444 367.168C376.799 377.143 374.961 388.095 372.999 399.767C372.049 405.612 371.031 411.712 370.043 417.958C368.879 425.115 369.447 431.435 366.433 435.013C365.053 436.836 363.027 438.006 359.977 438.902C356.957 439.943 353.813 440.677 350.495 441.296C343.957 442.422 337.075 443.045 329.963 442.99C315.785 442.96 301.043 441.203 286.161 438.174C271.263 435.21 256.928 431.164 243.524 426.202C236.854 423.729 230.381 421.035 224.769 417.681C219.141 414.391 214.344 410.297 212.244 405.348C209.888 400.331 210.653 394.917 211.646 388.398C212.57 382.136 213.507 376.082 214.392 370.22C216.372 358.484 218.257 347.614 219.966 337.655C224.987 310.219 228.124 289.816 229.113 279.733C229.76 280.386 230.331 280.813 230.838 281.223C231.52 281.749 232.218 282.21 232.917 282.671C235.665 284.435 238.405 285.718 241.162 286.936C246.613 289.356 252.009 291.213 257.392 292.861C268.142 296.221 278.585 298.677 288.586 300.74C308.604 304.802 326.919 307.037 342.366 307.955C357.813 308.873 370.392 308.474 379.122 306.839C383.455 306.013 386.799 304.785 388.848 303.278C390.994 301.66 390.8 299.826 390.493 299.949C390.157 299.928 389.801 300.998 387.895 301.72C385.971 302.507 382.815 303.032 378.7 303.3C370.342 303.801 358.084 303.258 342.988 301.543C327.908 299.764 310.021 296.958 290.442 292.534C280.685 290.331 270.484 287.735 260.153 284.35C255.042 282.706 249.855 280.837 244.899 278.618C242.462 277.485 239.977 276.271 237.864 274.951C237.34 274.605 236.816 274.259 236.42 273.947C235.959 273.618 235.47 273.145 235.563 273.307C235.401 273.4 236.033 273.09 236.549 272.954C237.082 272.754 237.662 272.635 238.259 272.453C240.677 271.867 243.428 271.576 246.097 271.332C251.483 270.925 256.975 270.889 262.416 271.045C273.233 271.339 283.733 272.303 293.701 273.466C313.619 275.856 331.451 279.126 346.23 282.538C361.008 285.95 372.798 289.52 380.482 292.813C384.356 294.467 387.091 296.023 388.642 297.397C390.192 298.772 390.174 299.864 390.493 299.949C390.779 300.163 391.514 298.441 390.042 296.265C388.616 294.17 385.86 291.924 382.076 289.676C374.428 285.228 362.72 280.584 347.827 276.319C332.935 272.055 314.954 268.059 294.756 265.182C284.648 263.776 273.925 262.616 262.742 262.155C257.109 261.948 251.362 261.915 245.43 262.313C242.424 262.536 239.447 262.903 236.24 263.62C235.434 263.815 234.628 264.01 233.805 264.269C232.981 264.529 232.239 264.741 230.797 265.519C228.126 266.791 226.307 268.976 225.733 271.632C225.504 273.764 226.094 275.909 227.38 277.761C226.609 280.638 225.611 284.62 224.385 289.705C221.775 300.724 218.055 316.654 213.644 336.441C211.47 346.344 209.167 357.239 206.915 368.971C205.821 374.845 204.739 380.928 203.734 387.238C203.248 390.328 202.618 393.449 202.472 397.316C202.297 401.038 203.017 405 204.561 408.703C207.677 416.254 214.062 421.323 220.356 425.202C226.713 429.098 233.553 431.959 240.444 434.628C254.325 439.855 269.09 444.085 284.437 447.169C299.783 450.253 315.135 452.037 330.084 451.999C337.567 451.949 345.013 451.271 352.229 449.915C355.854 449.173 359.386 448.269 362.875 447.011C366.313 445.945 370.605 443.738 373.219 440.121C375.914 436.457 376.754 432.296 377.134 428.835Z" fill="#694F42" fill-opacity="0.05"/>
<path d="M302.115 250.502C305.029 255.737 307.154 258.294 307.64 258.013C309.048 257.362 302.645 245.71 299.774 225.479C298.481 215.47 298.479 203.203 302.255 190.646C305.868 178.183 313.606 164.906 325.436 156.563L327.254 155.405C327.254 155.405 327.271 155.341 327.3 155.486L327.759 156.842L328.613 159.538C329.161 161.33 329.709 163.121 330.193 164.896C332.256 172.027 333.826 178.958 334.918 185.624C337.183 198.908 337.139 211.094 335.686 221.121C332.792 241.384 324.95 252.235 326.254 252.995C326.714 253.324 329.241 251.055 332.505 246.036C335.768 241.017 339.645 232.941 342.007 222.336C344.369 211.73 345.153 198.577 343.191 184.414C342.283 177.318 340.753 169.986 338.774 162.535C338.244 160.68 337.713 158.824 337.199 156.905C336.516 154.597 335.768 152.273 335.02 149.948C334.408 148.139 333.698 146.441 333.069 144.697L332.593 143.404C332.551 143.05 332.308 143.191 332.082 143.267L331.404 143.497L328.784 144.577C327.023 145.269 325.308 146.043 323.541 147.009L321.677 148.086L320.264 149.009C305.738 159.234 297.712 174.352 294.024 188.372C290.285 202.583 291.07 216.019 293.317 226.558C295.675 237.195 299.282 245.22 302.115 250.502Z" fill="#694F42" fill-opacity="0.05"/>
<path d="M372.978 160.461C383.194 178.344 389.337 194.038 390.566 193.544C391.679 193.226 387.384 176.519 376.934 158.232C366.582 139.834 354.538 127.492 353.706 128.297C352.647 129.179 362.86 142.469 372.978 160.461Z" fill="#694F42" fill-opacity="0.05"/>
<path d="M384.02 147.384C393.206 163.483 396.762 178.347 398.148 178.033C399.274 177.923 397.583 161.983 388.056 145.108C378.628 128.122 365.946 118.42 365.224 119.323C364.259 120.366 375.077 131.145 384.02 147.384Z" fill="#694F42" fill-opacity="0.05"/>
<path d="M90.2289 56.1228C91.4951 56.2565 93.8698 45.8597 96.4775 33.0584C99.0213 20.24 100.803 9.75302 99.5246 9.41038C98.3098 9.08487 94.5114 19.1686 91.9162 32.1789C89.321 45.1891 88.9627 55.9891 90.2289 56.1228Z" fill="#694F42" fill-opacity="0.05"/>
<path d="M77.905 43.295C79.137 43.5566 81.5982 35.6501 84.5219 26.0172C87.3817 16.3672 89.5701 8.45609 88.4066 7.93877C87.2261 7.48539 83.0728 14.8015 80.1445 24.7072C77.1351 34.6598 76.656 43.0974 77.905 43.295Z" fill="#694F42" fill-opacity="0.05"/>
</svg>
